# xmcd
#
# Track frame offsets:
#	150
#	11650
#	20966
#	32937
#	49136
#	61008
#	70702
#	80650
#	91351
#	103598
#	115552
#	124647
#	137757
#	147055
#	157008
#	166256
#	178860
#	188951
#	200916
#	211791
#	220757
#	231457
#	242165
#	251843
#	265358
#	276366
#	285819
#	297910
#	308591
#	321486
#
# Disc length: 4458 seconds
#
# Revision: 0
# Processed by: cddbd v1.5.1PL0 Copyright (c) Steve Scherf et al.
# Submitted via: dBpowerAMP V4.0
#
DISCID=c711681e
DTITLE=Brenda Lee - The Best of
DYEAR=1955
DGENRE=Country
TTITLE0=Let's Jump The Broomstick
TTITLE1=Do I Worry
TTITLE2=Crazy Talk
TTITLE3=Georgia On My Mind
TTITLE4=One Step ata Time
TTITLE5=Here Comes That Feeling
TTITLE6=Baby Face
TTITLE7=Sweet Nothing
TTITLE8=Jambalaya
TTITLE9=I'm Sorry
TTITLE10=Dynamyte
TTITLE11=Only You
TTITLE12=So Deep
TTITLE13=Bigelow G-200
TTITLE14=Love You Till I Die
TTITLE15=If I'm Dreaming
TTITLE16=Rock A Bye Baby Blues
TTITLE17=You've Got My Crying Again
TTITLE18=Papa Noel
TTITLE19=Ring A My Phone
TTITLE20=Halleluija I Love Him So
TTITLE21=Organ Grinder's Swing
TTITLE22=Rock The Bop
TTITLE23=Weep No More My Baby
TTITLE24=That's All You Gotta Do
TTITLE25=We Wee Willie
TTITLE26=Someone To Love
TTITLE27=Little Johan
TTITLE28=St Louis Blues
TTITLE29=Will You Love Tomorrow
EXTD=
EXTT0=
EXTT1=
EXTT2=
EXTT3=
EXTT4=
EXTT5=
EXTT6=
EXTT7=
EXTT8=
EXTT9=
EXTT10=
EXTT11=
EXTT12=
EXTT13=
EXTT14=
EXTT15=
EXTT16=
EXTT17=
EXTT18=
EXTT19=
EXTT20=
EXTT21=
EXTT22=
EXTT23=
EXTT24=
EXTT25=
EXTT26=
EXTT27=
EXTT28=
EXTT29=
PLAYORDER=
